# xmcd CD database file
#
# Track frame offsets:
#	150
#	22415
#	38020
#	66507
#	92680
#	114635
#	133002
#	147600
#	165792
#	186915
#	206470
#	230012
#	248452
#	273810
#
# Disc length: 3915 seconds
#
# Revision: 1
# Processed by: cddbd v1.5.2PL0 Copyright (c) Steve Scherf et al.
# Submitted via: CDex 1.51
#
DISCID=c70f490e
DTITLE=Various Artist - Salsa Coleccion Estalar 95
DYEAR=1995
DGENRE=Salsa
TTITLE0=Embrujo De Amor - Orquesta Canela
TTITLE1=Mi Razon De Ser Lisandro Meza
TTITLE2=No Quedo Ni El Gata - Zaperoco
TTITLE3=Serrana Mia - Grupo Ciclon
TTITLE4=Tu Intrusa Y Amante - Orquesta Canela
TTITLE5=Y Yo Ganga - Armando Sanchez
TTITLE6=Boquita Venenosa - Grupo Teorema
TTITLE7=La Ultima Vez Que La Vi - Marea Alta
TTITLE8=No Estamos Bien - Checo Acosta
TTITLE9=Dejame En Mi Soledad - Claudio Soto
TTITLE10=Tormenta De Amor - Diana
TTITLE11=En Silencio Te Amare - Combo De Las Estrellas
TTITLE12=Si Estoy Junta A Ti - Sonora Ponceña
TTITLE13=No Me Digas Corazon - Armando Sanchez
EXTD=YEAR: 1995
EXTT0=
EXTT1=
EXTT2=
EXTT3=
EXTT4=
EXTT5=
EXTT6=
EXTT7=
EXTT8=
EXTT9=
EXTT10=
EXTT11=
EXTT12=
EXTT13=
PLAYORDER=
